<?xml version="1.0" standalone="no"?>
<!DOCTYPE svg PUBLIC "-//W3C//DTD SVG 20010904//EN"
 "http://www.w3.org/TR/2001/REC-SVG-20010904/DTD/svg10.dtd">
<svg version="1.0" xmlns="http://www.w3.org/2000/svg"
 width="420.000000pt" height="420.000000pt" viewBox="0 0 420.000000 420.000000"
 preserveAspectRatio="xMidYMid meet">

<g transform="translate(0.000000,420.000000) scale(0.100000,-0.100000)"
fill="#000000" stroke="none">
<path d="M1559 3384 c-12 -13 -41 -29 -63 -35 -23 -6 -57 -20 -76 -33 -19 -12
-48 -28 -65 -36 -40 -21 -95 -95 -95 -129 0 -16 -9 -36 -21 -47 -28 -25 -49
-75 -49 -117 0 -19 -7 -40 -16 -48 -8 -7 -24 -30 -35 -52 -18 -33 -19 -44 -8
-68 7 -19 9 -52 5 -97 -5 -50 -3 -79 9 -112 14 -39 14 -57 4 -132 -8 -57 -10
-148 -5 -265 3 -98 9 -245 11 -328 l6 -150 -20 52 c-25 68 -55 109 -93 129
-41 21 -60 3 -23 -22 66 -47 85 -68 104 -117 11 -29 25 -51 31 -49 6 1 9 -2 5
-8 -4 -6 -4 -33 0 -60 6 -47 9 -50 36 -50 26 0 28 2 20 19 -18 32 -15 476 3
553 8 37 23 113 31 170 35 222 82 311 194 367 91 46 139 53 276 41 254 -23
472 -24 606 -4 68 10 170 18 226 18 l103 -1 77 -45 c87 -50 138 -108 166 -186
10 -27 29 -111 42 -188 14 -76 32 -175 40 -219 9 -44 13 -98 10 -120 -3 -22
-6 -114 -6 -205 -1 -91 -5 -173 -11 -182 -7 -15 -4 -18 21 -18 27 0 29 3 36
47 16 110 58 182 139 237 38 25 19 43 -23 22 -34 -18 -72 -71 -92 -128 -7 -21
-15 -38 -19 -38 -6 0 5 185 14 220 4 14 9 144 13 290 7 339 -4 401 -92 499
-30 33 -35 46 -35 87 -1 106 -76 196 -224 268 -50 24 -152 74 -226 110 -85 41
-163 71 -210 81 -41 9 -104 26 -140 38 -42 14 -95 22 -149 24 -46 1 -108 8
-137 14 -43 10 -62 10 -93 -1 -41 -13 -55 -12 -132 13 -46 15 -47 15 -70 -9z"/>
<path d="M1544 2251 c-49 -12 -122 -50 -128 -66 -15 -39 17 -55 70 -35 15 6
60 15 101 21 66 9 83 8 143 -10 85 -26 97 -26 110 -1 29 55 -36 91 -175 96
-49 2 -104 0 -121 -5z"/>
<path d="M2422 2242 c-69 -25 -78 -35 -66 -69 12 -33 37 -35 129 -9 66 18 149
14 219 -10 50 -18 72 -18 80 1 10 27 -5 44 -62 71 -77 37 -220 44 -300 16z"/>
<path d="M1565 1980 c-85 -22 -165 -85 -165 -131 0 -16 5 -14 31 16 32 36 86
71 96 62 2 -3 0 -14 -6 -25 -31 -58 5 -159 69 -194 37 -20 121 -21 141 -1 7 7
3 9 -14 6 -16 -3 -26 1 -30 11 -4 9 -2 16 4 16 6 0 24 9 39 20 33 23 47 12 29
-22 -11 -20 -11 -22 3 -10 25 20 48 77 48 119 l1 38 45 -50 45 -50 -13 35 c-6
19 -35 58 -63 87 -72 71 -165 98 -260 73z m69 -62 c15 -24 -13 -53 -43 -43
-23 7 -28 34 -9 53 16 16 38 12 52 -10z"/>
<path d="M2473 1974 c-74 -27 -148 -104 -168 -174 -6 -23 -5 -22 13 5 11 17
31 41 46 54 l26 24 0 -39 c0 -105 105 -183 195 -144 19 8 19 9 -2 9 -34 1 -28
23 13 49 25 17 39 21 47 13 7 -7 6 -15 -3 -26 -7 -8 -8 -15 -3 -15 5 0 19 17
31 39 24 42 29 100 11 133 -6 11 -8 22 -6 25 10 9 64 -26 96 -62 26 -30 31
-32 31 -16 0 31 -59 91 -110 113 -61 26 -163 32 -217 12z m37 -75 c0 -25 -38
-35 -59 -14 -15 15 -14 18 8 36 26 22 51 11 51 -22z"/>
<path d="M849 89 c-3 -31 3 -45 27 -67 l25 -22 1194 0 1194 0 27 23 c15 14 25
31 23 42 -4 18 -5 18 -21 1 -10 -10 -18 -14 -18 -9 0 4 -4 2 -8 -5 -7 -10
-164 -12 -788 -11 -428 0 -947 0 -1152 0 -205 -1 -391 3 -413 8 -23 5 -52 19
-65 32 -17 16 -24 19 -25 8z"/>
</g>
</svg>
