<?xml version="1.0" standalone="no"?>
<!DOCTYPE svg PUBLIC "-//W3C//DTD SVG 20010904//EN"
 "http://www.w3.org/TR/2001/REC-SVG-20010904/DTD/svg10.dtd">
<svg version="1.0" xmlns="http://www.w3.org/2000/svg"
 width="420.000000pt" height="420.000000pt" viewBox="0 0 420.000000 420.000000"
 preserveAspectRatio="xMidYMid meet">

<g transform="translate(0.000000,420.000000) scale(0.100000,-0.100000)"
fill="#000000" stroke="none">
<path d="M2040 3730 c-14 -11 -47 -23 -75 -26 -27 -4 -57 -12 -65 -19 -8 -7
-32 -16 -53 -19 -47 -9 -102 -56 -117 -101 -6 -18 -27 -45 -45 -60 -25 -18
-38 -39 -46 -71 -7 -28 -21 -51 -35 -61 -37 -24 -66 -77 -58 -107 3 -15 -3
-50 -16 -88 -14 -41 -19 -73 -15 -95 4 -23 -3 -59 -24 -120 -36 -104 -72 -274
-76 -358 -2 -33 -6 -67 -9 -75 -6 -19 -36 -166 -36 -180 0 -5 7 -10 15 -10 16
0 24 26 54 175 26 127 40 171 86 270 20 44 48 109 61 145 70 184 167 274 322
299 62 10 138 -1 332 -48 199 -47 310 -70 380 -76 215 -18 348 -95 421 -242
23 -46 24 -56 23 -240 -1 -106 -6 -205 -12 -220 -29 -79 -72 -268 -86 -373
-10 -85 -45 -165 -101 -233 -115 -139 -214 -215 -402 -308 -140 -71 -141 -71
-221 -70 -103 1 -359 52 -426 85 -72 35 -124 81 -128 112 -3 22 -13 11 -72
-80 -38 -59 -78 -124 -89 -144 -10 -20 -36 -59 -56 -87 -44 -59 -54 -82 -40
-91 6 -3 2 -12 -10 -21 -12 -8 -21 -20 -21 -26 1 -22 71 67 106 134 47 90 94
110 161 69 45 -27 51 -60 20 -112 -14 -24 -35 -61 -47 -83 -12 -22 -35 -64
-52 -92 -16 -29 -26 -53 -21 -53 15 0 43 40 58 82 7 23 27 52 43 65 18 14 32
36 36 57 4 20 11 38 17 41 12 8 63 -32 80 -62 25 -46 238 -87 426 -81 116 3
120 4 144 31 24 27 110 57 163 57 13 0 48 16 77 36 30 20 78 46 109 58 30 13
77 36 103 53 l49 30 -40 16 c-38 15 -129 33 -197 39 -28 3 -25 6 44 47 41 24
111 79 156 123 78 74 114 93 130 68 11 -17 62 -11 86 11 l24 20 -27 -16 c-31
-19 -67 -17 -81 6 -7 11 -2 35 18 85 66 165 109 225 175 245 44 13 65 32 55
49 -16 27 -70 6 -127 -48 -32 -30 -38 -33 -38 -17 0 26 24 111 44 158 9 20 37
126 63 235 39 166 47 213 47 302 1 100 0 108 -31 160 -29 52 -30 58 -20 107
19 92 4 119 -147 266 -144 141 -227 209 -297 241 -25 12 -65 37 -88 55 -44 35
-126 71 -164 71 -12 0 -33 7 -47 15 -14 8 -49 26 -79 41 -48 24 -57 25 -92 15
-37 -11 -42 -10 -83 18 -58 40 -85 45 -116 21z m-326 -2204 l39 -33 -45 -17
c-24 -10 -61 -16 -81 -14 l-37 3 31 48 c17 26 36 47 43 47 6 -1 28 -16 50 -34z"/>
<path d="M1769 2805 c-50 -16 -85 -47 -74 -65 5 -9 24 -10 64 -4 97 13 151 6
223 -28 56 -26 69 -29 82 -18 27 21 19 56 -16 78 -80 49 -192 63 -279 37z"/>
<path d="M2562 2653 c-30 -6 -46 -37 -32 -63 9 -17 21 -20 84 -20 82 0 138
-16 206 -60 57 -37 80 -39 80 -6 0 27 -59 85 -117 114 -65 33 -156 47 -221 35z"/>
<path d="M1775 2573 c-76 -18 -94 -26 -123 -54 -33 -32 -46 -64 -14 -37 23 21
78 48 96 48 12 0 12 -7 -5 -45 -15 -33 -18 -53 -12 -76 8 -28 16 -33 80 -54
43 -13 76 -19 85 -14 24 16 51 11 44 -8 -4 -11 5 -6 19 11 14 15 29 41 32 57
9 44 19 43 42 -4 16 -32 21 -37 21 -19 0 60 -61 145 -125 173 -45 19 -110 30
-140 22z m61 -68 c7 -18 -13 -45 -33 -45 -17 0 -27 24 -19 45 7 20 45 19 52 0z"/>
<path d="M1266 2501 c-4 -5 8 -27 26 -47 18 -20 38 -49 45 -63 17 -38 17 1 -1
42 -16 39 -61 83 -70 68z"/>
<path d="M2540 2389 c-46 -18 -99 -61 -120 -96 -11 -19 -20 -35 -20 -37 0 -2
19 14 42 36 23 21 45 38 48 38 4 0 5 -20 2 -45 -2 -25 1 -58 8 -74 11 -27 17
-30 77 -37 41 -4 73 -2 89 5 32 14 34 14 34 -4 0 -22 13 -18 35 12 13 18 19
44 20 79 l0 52 26 -19 c15 -10 36 -37 47 -59 26 -54 39 -33 14 23 -21 48 -68
91 -127 118 -44 20 -134 24 -175 8z m60 -44 c18 -21 5 -47 -22 -43 -26 3 -37
36 -16 49 18 12 24 11 38 -6z"/>
<path d="M1347 2166 c-8 -87 -16 -103 -55 -109 -19 -3 -14 -4 14 -6 23 0 46
-7 51 -13 6 -7 20 -44 32 -83 37 -117 131 -266 155 -246 6 5 19 10 29 12 17 4
16 8 -12 44 -17 22 -35 45 -40 51 -6 7 -8 14 -5 16 2 3 -5 13 -16 23 -11 10
-20 23 -20 30 0 7 -10 23 -23 37 -12 13 -23 33 -24 44 -2 30 -14 64 -24 64 -5
0 -9 10 -9 23 -1 12 -11 60 -24 107 l-23 84 -6 -78z"/>
<path d="M2014 2045 c18 -75 167 -128 265 -94 32 11 61 52 61 86 0 14 -5 11
-24 -12 -23 -28 -28 -30 -93 -29 -88 2 -144 18 -184 52 l-32 27 7 -30z"/>
<path d="M1840 1941 c0 -19 113 -82 201 -112 83 -29 107 -32 209 -33 88 -1
128 3 168 18 29 10 51 20 49 22 -2 3 -17 0 -33 -6 -41 -16 -196 -13 -302 5
-115 20 -190 46 -248 84 -24 17 -44 26 -44 22z"/>
<path d="M2475 1850 c4 -6 11 -8 16 -5 14 9 11 15 -7 15 -8 0 -12 -5 -9 -10z"/>
<path d="M1286 1570 c4 -14 13 -36 21 -50 l14 -25 -7 25 c-4 14 -13 36 -21 50
l-14 25 7 -25z"/>
<path d="M2842 1263 c-49 -48 -195 -128 -362 -199 -25 -10 -93 -44 -151 -76
-109 -58 -144 -66 -144 -32 0 17 -8 19 -85 19 -82 0 -85 -1 -82 -22 4 -31 -33
-31 -79 0 -19 12 -55 35 -81 50 -44 26 -47 29 -37 54 22 59 -1 26 -50 -73 -53
-104 -68 -155 -21 -69 16 30 33 46 50 50 28 6 75 -8 100 -29 8 -8 32 -19 53
-27 20 -7 37 -17 37 -21 0 -4 5 -8 10 -8 6 0 10 8 10 17 0 30 16 1 34 -62 32
-109 40 -125 57 -125 12 0 24 23 44 88 25 81 45 123 45 94 0 -7 5 -12 12 -12
6 0 8 3 5 7 -4 3 28 18 71 33 42 15 85 31 96 35 14 6 17 4 14 -11 -2 -15 -23
-24 -88 -40 -47 -12 -74 -22 -60 -23 14 0 50 6 80 14 30 8 56 15 57 15 2 0 0
-78 -3 -172 -7 -175 6 -362 28 -416 6 -15 16 -69 22 -121 6 -54 16 -96 23 -98
13 -5 11 310 -2 477 -6 79 8 309 21 343 3 9 13 18 22 20 15 4 15 5 0 6 -18 1
-24 27 -10 47 4 6 67 42 140 80 173 89 291 184 280 225 -2 9 -22 -4 -56 -38z"/>
<path d="M2919 1122 c-20 -15 -59 -38 -88 -51 -28 -14 -49 -26 -47 -29 7 -6
143 68 162 89 23 26 16 23 -27 -9z"/>
<path d="M1186 1065 c-4 -27 -4 -61 0 -75 3 -14 6 -35 5 -48 0 -12 6 -25 14
-28 8 -4 12 -10 9 -15 -3 -5 0 -9 7 -9 7 0 9 -3 6 -7 -12 -11 25 -43 50 -43
15 0 23 -6 23 -18 0 -10 18 -35 41 -56 25 -25 37 -42 31 -48 -16 -16 -46 0
-95 50 -76 77 -89 95 -84 119 2 12 0 21 -6 20 -5 -1 -11 6 -12 16 -4 23 -13
33 -22 24 -12 -12 18 -121 48 -173 16 -28 29 -58 29 -65 0 -8 30 -38 68 -66
37 -28 97 -75 135 -103 37 -28 65 -55 63 -59 -3 -4 9 -8 25 -9 19 -2 32 3 36
13 4 11 16 16 37 15 17 -1 33 -1 36 0 3 1 19 4 35 6 17 3 53 20 81 39 l52 34
12 -81 c7 -46 10 -109 6 -149 -5 -55 -3 -69 8 -69 17 0 26 31 26 97 0 28 5 64
11 80 6 15 12 87 13 159 l1 131 -29 -39 c-38 -51 -110 -88 -175 -88 -41 0 -56
5 -83 29 -18 15 -58 43 -88 62 -30 18 -59 39 -63 46 -4 7 -14 13 -22 13 -7 0
-17 9 -20 20 -3 11 -11 20 -16 20 -5 0 -17 8 -27 18 -10 9 -35 30 -55 46 -20
15 -37 34 -37 42 0 7 -7 17 -15 21 -9 6 -16 26 -17 53 0 25 -9 63 -18 85 l-17
40 -7 -50z"/>
<path d="M2590 980 c-18 -12 -2 -12 25 0 13 6 15 9 5 9 -8 0 -22 -4 -30 -9z"/>
<path d="M2548 963 c7 -3 16 -2 19 1 4 3 -2 6 -13 5 -11 0 -14 -3 -6 -6z"/>
<path d="M3202 935 c0 -16 2 -22 5 -12 2 9 2 23 0 30 -3 6 -5 -1 -5 -18z"/>
<path d="M1930 886 c0 -9 8 -12 27 -8 25 5 25 6 8 13 -29 11 -35 10 -35 -5z"/>
<path d="M1255 820 c3 -5 8 -10 11 -10 2 0 4 5 4 10 0 6 -5 10 -11 10 -5 0 -7
-4 -4 -10z"/>
<path d="M3069 713 c-13 -16 -12 -17 4 -4 16 13 21 21 13 21 -2 0 -10 -8 -17
-17z"/>
<path d="M2108 665 c-16 -13 -28 -31 -28 -40 0 -18 39 -21 45 -2 5 14 15 67
12 67 -1 0 -14 -12 -29 -25z"/>
<path d="M2943 553 c-26 -32 -51 -60 -54 -63 -29 -23 -58 -211 -40 -265 8 -25
10 -17 11 50 2 141 10 167 79 255 72 93 74 106 4 23z"/>
<path d="M2060 530 c0 -5 18 -10 40 -10 52 0 52 14 0 18 -22 1 -40 -2 -40 -8z"/>
<path d="M1600 465 c-7 -8 -20 -15 -30 -15 -23 0 -40 -21 -89 -111 -23 -42
-52 -88 -65 -102 -13 -14 -22 -28 -19 -30 7 -8 86 13 110 28 12 8 24 24 28 35
11 33 24 23 27 -22 3 -49 -18 -132 -50 -195 -28 -53 -28 -55 5 -51 25 3 29 9
45 73 20 84 22 150 7 211 -9 35 -9 51 1 72 21 48 50 122 46 122 -2 0 -9 -7
-16 -15z"/>
<path d="M2053 433 c15 -2 37 -2 50 0 12 2 0 4 -28 4 -27 0 -38 -2 -22 -4z"/>
<path d="M1480 410 c-6 -11 -8 -20 -6 -20 3 0 10 9 16 20 6 11 8 20 6 20 -3 0
-10 -9 -16 -20z"/>
<path d="M1435 330 c-9 -16 -13 -30 -11 -30 3 0 12 14 21 30 9 17 13 30 11 30
-3 0 -12 -13 -21 -30z"/>
<path d="M1211 291 c-8 -5 -9 -11 -3 -15 5 -3 12 1 16 9 6 17 6 18 -13 6z"/>
<path d="M3371 284 c0 -11 3 -14 6 -6 3 7 2 16 -1 19 -3 4 -6 -2 -5 -13z"/>
<path d="M1391 255 c-23 -40 -24 -40 -80 -20 -50 17 -55 10 -6 -11 54 -22 69
-18 94 26 27 49 21 54 -8 5z"/>
<path d="M2110 166 c0 -110 7 -166 21 -166 9 0 11 223 3 253 -14 45 -24 7 -24
-87z"/>
<path d="M2077 253 c-11 -11 -8 -253 3 -253 6 0 10 50 10 130 0 72 -1 130 -3
130 -2 0 -7 -3 -10 -7z"/>
<path d="M3381 224 c0 -11 3 -14 6 -6 3 7 2 16 -1 19 -3 4 -6 -2 -5 -13z"/>
</g>
</svg>
